<svg width="32" height="32" viewBox="0 0 32 32" fill="none" xmlns="http://www.w3.org/2000/svg">
    <path
        d="M21.5514 0.0542569C21.2674 -0.0577492 20.9474 0.00625432 20.7314 0.222266C20.5154 0.438278 20.4514 0.762295 20.5634 1.04231C21.2794 2.83441 21.6434 4.71051 21.6434 6.61861C21.6434 14.9111 14.8951 21.6594 6.59861 21.6594C4.69851 21.6594 2.83041 21.2994 1.04231 20.5834C0.758295 20.4714 0.434278 20.5394 0.222266 20.7514C0.00625432 20.9674 -0.0577492 21.2914 0.0542569 21.5714C2.58239 27.9078 8.61872 32 15.4271 32C24.5636 32 31.996 24.5676 31.996 15.4351C31.996 8.61872 27.8958 2.57839 21.5514 0.0542569Z"
        fill="#F9F9FF" />
</svg>