<svg width="32" height="32" viewBox="0 0 32 32" fill="none" xmlns="http://www.w3.org/2000/svg">
    <path
        d="M16 24C20.4183 24 24 20.4183 24 16C24 11.5817 20.4183 8 16 8C11.5817 8 8 11.5817 8 16C8 20.4183 11.5817 24 16 24Z"
        fill="#01010F"
    />
    <path
        d="M16 6.77857C15.2631 6.77857 14.6667 6.18214 14.6667 5.44524V1.33333C14.6667 0.596429 15.2631 0 16 0C16.7369 0 17.3333 0.596429 17.3333 1.33333V5.44524C17.3333 6.18095 16.7369 6.77857 16 6.77857Z"
        fill="#01010F"
    />
    <path
        d="M7.59404 8.92621C7.25238 8.92621 6.9119 8.79644 6.65119 8.53573L4.6869 6.57144C4.16666 6.05002 4.16666 5.20716 4.6869 4.68573C5.20833 4.1643 6.05238 4.16549 6.57262 4.68573L8.5369 6.65002C9.05714 7.17144 9.05714 8.0143 8.5369 8.53573C8.27619 8.79644 7.93452 8.92621 7.59404 8.92621Z"
        fill="#01010F"
    />
    <path
        d="M5.44405 17.3321H1.33333C0.596429 17.3321 0 16.7357 0 15.9988C0 15.2619 0.596429 14.6655 1.33333 14.6655H5.44405C6.18095 14.6655 6.77738 15.2619 6.77738 15.9988C6.77738 16.7357 6.18095 17.3321 5.44405 17.3321Z"
        fill="#01010F"
    />
    <path
        d="M5.62857 27.7036C5.2869 27.7036 4.94643 27.5738 4.68571 27.3131C4.16547 26.7916 4.16547 25.9488 4.68571 25.4274L6.65 23.4631C7.17023 22.9428 8.01428 22.9416 8.53571 23.4631C9.05595 23.9845 9.05595 24.8274 8.53571 25.3488L6.57143 27.3131C6.3119 27.5738 5.97024 27.7036 5.62857 27.7036Z"
        fill="#01010F"
    />
    <path
        d="M16 32C15.2631 32 14.6667 31.4036 14.6667 30.6667V26.5548C14.6667 25.8179 15.2631 25.2214 16 25.2214C16.7369 25.2214 17.3333 25.8179 17.3333 26.5548V30.6667C17.3333 31.4036 16.7357 32 16 32Z"
        fill="#01010F"
    />
    <path
        d="M26.3702 27.7048C26.0286 27.7048 25.6881 27.575 25.4274 27.3143L23.4631 25.35C22.9428 24.8286 22.9428 23.9857 23.4631 23.4643C23.9845 22.944 24.8286 22.944 25.3488 23.4643L27.3131 25.4286C27.8333 25.95 27.8333 26.7928 27.3131 27.3143C27.0536 27.5738 26.7119 27.7048 26.3702 27.7048Z"
        fill="#01010F"
    />
    <path
        d="M30.6667 17.3345H26.556C25.8191 17.3345 25.2226 16.7381 25.2226 16.0012C25.2226 15.2643 25.8191 14.6678 26.556 14.6678H30.6667C31.4036 14.6678 32 15.2643 32 16.0012C32 16.7381 31.4036 17.3345 30.6667 17.3345Z"
        fill="#01010F"
    />
    <path
        d="M24.4071 8.92737C24.0655 8.92737 23.725 8.7976 23.4643 8.53689C22.944 8.01546 22.944 7.1726 23.4643 6.65118L25.4286 4.68689C25.95 4.16665 26.794 4.16546 27.3143 4.68689C27.8345 5.20832 27.8345 6.05118 27.3143 6.5726L25.35 8.53689C25.0893 8.79641 24.7488 8.92737 24.4071 8.92737Z"
        fill="#01010F"
    />
</svg>